<?xml version="1.0" encoding="UTF-8" standalone="no"?>
<!-- Created with Inkscape (http://www.inkscape.org/) -->

<svg
   version="1.1"
   id="svg2"
   width="512"
   height="512"
   viewBox="0 0 512 512"
   sodipodi:docname="favicon.svg"
   inkscape:version="1.2.2 (b0a8486541, 2022-12-01)"
   xmlns:inkscape="http://www.inkscape.org/namespaces/inkscape"
   xmlns:sodipodi="http://sodipodi.sourceforge.net/DTD/sodipodi-0.dtd"
   xmlns="http://www.w3.org/2000/svg"
   xmlns:svg="http://www.w3.org/2000/svg">
  <defs
     id="defs6" />
  <sodipodi:namedview
     id="namedview4"
     pagecolor="#000000"
     bordercolor="#666666"
     borderopacity="1.0"
     inkscape:showpageshadow="2"
     inkscape:pageopacity="1.0"
     inkscape:pagecheckerboard="0"
     inkscape:deskcolor="#d1d1d1"
     showgrid="true"
     inkscape:zoom="1.2029102"
     inkscape:cx="105.16163"
     inkscape:cy="229.85922"
     inkscape:window-width="1916"
     inkscape:window-height="1058"
     inkscape:window-x="1920"
     inkscape:window-y="18"
     inkscape:window-maximized="1"
     inkscape:current-layer="g8">
    <inkscape:grid
       type="xygrid"
       id="grid1002" />
  </sodipodi:namedview>
  <g
     inkscape:groupmode="layer"
     inkscape:label="Image"
     id="g8">
    <rect
       style="fill:#000000;stroke:none;stroke-width:0.0491339;stroke-linejoin:round"
       id="rect894"
       width="512"
       height="512"
       x="0"
       y="0" />
    <g
       id="g1179"
       transform="matrix(3.2149609,0,0,3.2149609,30.244148,41.000609)"
       style="stroke-width:1.17561">
      <path
         style="fill:#ffffff;fill-opacity:1;stroke-width:1.17561"
         d="m 22.069955,124.39278 c -1.060093,-1.13953 -2.120192,-2.27905 -3.18029,-3.41857 l 0.06879,-12.22861 0.06879,-12.228606 2.133547,-0.413972 c 2.160479,-0.419198 3.252171,-1.037119 4.83894,-2.738938 l 0.609447,-0.77454 -0.284697,-0.795238 C 26.148369,91.302374 25.836071,89.949594 25.603023,88.797577 L 25.179301,86.703003 25.060355,73.392129 c -0.09015,-10.088488 -0.04234,-13.403183 0.197514,-13.692187 0.179803,-0.216646 0.777116,-0.381312 1.383189,-0.381312 h 1.066726 l 4.284045,-4.233333 4.284046,-4.233334 h 23.537332 c 0,0 14.362843,-0.05195 21.544046,-0.0061 1.374052,0.0088 2.398072,-0.01818 3.657589,-0.471539 0.885882,-0.318869 1.398731,-0.629507 1.755297,-1.007453 0.550555,-0.583568 0.571282,-2.885976 0.651895,-6.690777 l 0.132291,-6.243897 3.175,-0.162922 c 1.74625,-0.08961 3.532187,-0.255469 3.96875,-0.368581 2.475664,-0.641434 5.113903,-2.866797 5.691125,-4.80048 0.16714,-0.559909 0.2647,-1.494266 0.2168,-2.07635 l -0.0871,-1.058333 -1.370398,-0.07933 -1.370394,-0.07933 -0.449834,0.947957 c -1.062709,2.239494 -3.842554,3.57632 -7.43673,3.57632 -2.16621,0 -3.207591,-0.305409 -4.85077,-1.422593 -1.561272,-1.061498 -4.827532,-4.335433 -4.701746,-4.712793 0.05411,-0.16234 0.669216,-0.39823 1.28711,-0.66385 4.796848,-2.092023 8.296327,-1.794443 11.219844,-1.899944 l 4.762499,-0.164361 0.08145,-0.980985 C 97.810348,21.036291 97.417029,20.515763 96.04531,20.31006 95.150852,20.175927 94.432437,19.77897 93.084427,18.674028 87.892284,14.418115 81.42048,13.421196 77.077205,16.20827 c -1.460677,0.937313 -3.571271,3.1096 -4.591436,4.725646 -2.25824,3.577283 -2.837267,9.929904 -1.211749,13.294338 0.685953,1.419759 0.216548,1.26102 -1.064884,-0.360116 -2.190652,-2.771384 -3.160027,-5.54763 -3.160027,-9.050179 0,-5.522004 3.206744,-11.657312 7.615805,-14.570945 4.578369,-3.025516 12.343092,-3.6467362 17.122735,-1.369912 3.12227,1.487322 6.507413,3.85818 8.808591,6.169292 l 2.19401,2.203479 h 4.53167 4.53167 l 3.60477,3.571875 3.60478,3.571875 h 1.95658 1.95658 l 2.33119,2.331194 c 1.11696,1.116962 2.36047,2.587106 2.58397,2.9587 0,0 -0.96004,0.0021 -1.52277,0.0018 -1.26744,-6.67e-4 -1.41288,0.142875 -1.5875,0.3175 -0.42318,0.423182 -0.40542,1.925989 0.027,2.284872 0.18948,0.157253 1.40987,0.320659 2.71198,0.363125 l 2.36748,0.07721 c 0,0 0.08,0.9689 0.0773,1.746128 -0.005,1.487211 -0.10579,1.745058 -0.10579,1.745058 l -9.32952,3.4158 c 0,0 1.5824,19.92513 -1.21683,15.582596 -0.33263,-0.727604 -1.10299,-1.799166 -1.71191,-2.38125 -0.60892,-0.582083 -1.48679,-1.713177 -1.95082,-2.513541 l -0.8437,-1.455209 -0.13229,-3.704166 -0.12773,-4.46529 c -1.76389,0 -3.81151,-0.51819 -5.5754,-0.51819 l 0.14688,18.212646 C 106.16455,71.594764 104.51139,78.859857 96.417867,87.6398 v 16.10552 16.10552 l 0.605813,0.15205 c 0.333198,0.0836 1.583354,1.15355 2.778125,2.37761 l 2.172315,2.22555 v 1.22296 1.22295 h -3.968754 -3.968749 v -1.32959 -1.32959 l -1.5875,-1.70644 -1.5875,-1.70645 v -5.3138 c 0,-10.66 -1.215516,-14.86233 -5.141726,-16.331322 -0.776936,-0.290687 -1.726365,-0.32864 -2.011948,-0.32864 H 83.188701 V 85.96217 c 0,-9.792522 -0.07914,-13.1231 -0.3175,-13.361458 -0.174625,-0.174625 -0.805656,-0.3175 -1.402292,-0.3175 -0.596635,0 -1.499872,0.200766 -1.688078,0.3622 -0.01388,0.0119 -0.03171,9.580196 -0.03171,9.580196 L 66.725752,87.00899 54.613706,78.83156 c 0,0 -0.0088,-2.878688 -0.02526,-5.155971 -0.0097,-1.346832 -0.206244,-2.576378 -0.292242,-2.662377 -0.174623,-0.174626 -0.865188,-0.317499 -1.534583,-0.317499 -0.669396,0 -1.359959,0.142875 -1.534584,0.317499 -0.232645,0.232646 -0.3175,2.410863 -0.3175,8.150135 -2.43082,11.341645 -18.194152,21.372263 -26.458331,24.387213 v 8.15014 8.15014 l 0.605814,0.15205 c 0.333197,0.0836 1.583353,1.15355 2.778124,2.37761 l 2.172311,2.22555 v 2.44591 h -7.937499 c -3e-6,-0.88639 -3e-6,-1.77279 -3e-6,-2.65918 z m 91.495495,-98.774639 0.082,-1.289028 -0.5911,-0.629201 -0.5911,-0.629197 h -3.66635 c -2.89325,0 -3.69623,0.07787 -3.80807,0.369302 -0.0779,0.203118 0.2269,1.099519 0.67743,1.992001 l 0.81913,1.6227 3.49807,-0.07377 3.49807,-0.07377 z M 18.978298,69.394042 c -1.50018,-0.689801 -2.601333,-1.47924 -4.248974,-3.046177 -1.469516,-1.397537 -2.563178,-3.55827 -3.371177,-6.66039 -0.593015,-2.276737 -0.531927,-6.769002 0.120669,-8.873786 0.522143,-1.684044 1.17349,-2.872142 1.574582,-2.872142 0.206386,0 0.95363,1.641776 2.650433,5.823296 1.072157,2.642169 2.747602,4.557607 4.586632,5.243626 l 1.382617,0.515763 v 5.122719 5.12272 l -0.79375,0.06675 c -0.436562,0.03672 -1.292027,-0.162356 -1.901032,-0.442383 z"
         id="path1183"
         sodipodi:nodetypes="ccccsscsscsssccccsssscsssscccsssscccssssssssssscccccccscsssscscccsscccccccccscccccccccssscsssscccsssscccccsccccccccscsccccssssssscccsss" />
      <path
         style="fill:#b7b7b7;fill-opacity:1;stroke-width:1.17561"
         d="m 46.940787,125.72237 v -1.32959 c -1.058337,-1.13763 -2.116668,-2.27526 -3.175,-3.41289 v -2.75153 c 0,-1.80297 -0.140671,-3.15024 -0.408048,-3.90807 -0.6373,-1.8063 -3.171791,-5.46116 -5.298869,-7.64125 l -1.93613,-1.98437 0.712671,-1.03455 c 0.787759,-1.14356 2.084657,-2.07407 5.380169,-3.860242 3.129645,-1.696268 4.622604,-2.746378 6.533769,-4.595691 1.73433,-1.678196 3.208699,-3.87459 3.22009,-4.797017 l 0.0065,-0.529167 0.256479,0.396875 c 0.606319,0.938213 0.121938,4.773332 -0.852141,6.746875 -0.287298,0.582083 -1.662538,2.212327 -3.056091,3.622767 l -2.533729,2.56443 0.538724,1.80119 c 0.296298,0.99066 1.090898,3.56025 1.765773,5.71021 l 1.227047,3.90901 v 2.61074 2.61074 l 0.605814,0.15205 c 0.333198,0.0836 1.583354,1.15355 2.778125,2.37761 l 2.172311,2.22555 v 1.22296 1.22295 h -3.96875 -3.968749 z m 43.542309,-17.77764 c -0.377052,-3.40131 -1.152022,-5.48366 -2.612943,-7.02102 -0.801031,-0.84294 -3.133598,-1.917582 -4.16221,-1.917582 h -0.519242 c 0,0 6.79e-4,-5.582326 -5.58e-4,-8.399935 -0.0012,-2.817609 -0.0071,-8.505674 -0.0071,-8.505674 l 0.668299,3.555616 0.604399,3.451047 2.118868,4.231508 c 2.583738,5.159877 3.639475,8.53379 4.037853,12.90409 0.297117,3.25944 0.195628,4.61558 -0.127364,1.70195 z m -65.277628,-5.57392 c 0.450583,-0.6549 1.387936,-1.69283 2.083009,-2.30652 1.407777,-1.242936 5.832491,-4.211159 9.465852,-6.349961 3.95206,-2.326402 6.983436,-4.506819 8.013694,-5.764114 0.536236,-0.654407 1.869556,-2.920595 2.962934,-5.035973 1.093374,-2.115376 2.36184,-4.043773 2.583267,-4.228148 l 0.596425,-0.496623 -0.0011,4.46056 v 4.345948 l -0.70178,1.408293 c -1.580171,3.170986 -6.829211,7.39277 -11.703634,9.413189 -2.631967,1.090935 -3.552624,1.821259 -3.998317,3.171729 l -0.289859,0.87828 -1.641226,0.17684 c -0.902674,0.0973 -2.593724,0.39352 -3.75789,0.65835 -1.164167,0.26483 -2.637303,0.56642 -3.273634,0.67019 l -1.156968,0.18869 z m -0.02386,-15.650109 c -0.03312,-0.84516 -0.09211,-4.329589 -0.131238,-7.624468 -0.05785,-4.871982 -0.01136,-6.630302 9.2e-4,-7.383528 0.82383,0 3.095049,3.866112 3.690634,6.416685 0.196736,0.842521 0.335036,3.223128 0.336685,5.795489 0,0 0.01408,2.94939 -0.326952,4.364074 -0.307684,1.328943 -0.911409,2.554607 -1.66765,3.683276 -0.0886,0.113594 -0.482665,0.618837 -0.482665,0.618837 -1.181938,-3.116992 -1.187121,-4.074175 -1.419734,-5.870365 z m 36.178964,5.035276 c -1.771798,-0.561816 -3.31715,-1.469115 -4.690893,-2.75409 -2.080095,-1.945688 -1.995792,-1.854363 -2.045852,-8.835389 l -0.04429,-6.176333 0.471795,1.130816 c 1.066278,3.011291 6.917941,7.20399 11.173988,8.00613 3.18339,0.599974 7.51787,0.03255 10.164069,-1.330569 2.00466,-1.032647 2.536698,-1.478031 2.988632,-2.501871 l 0.373304,-0.808347 -0.01259,6.510118 c 0.0085,1.58434 0.01794,6.02195 0.0083,6.828011 -0.176802,0.147921 -16.914473,0.398291 -18.386511,-0.06848 z m 35.05729,-6.629894 v -2.513717 c 0,0 1.337263,-1.2453 1.947796,-1.92343 0.767587,-0.852572 1.609347,-1.675924 2.148742,-2.688408 0.88171,-1.602563 0.85167,-3.283243 0.88544,-4.920443 0.0325,-1.277779 0.0974,-3.833336 0.0974,-3.833336 l 0.89388,-0.989414 c 1.27354,-1.409646 1.69678,-3.044979 1.69949,-4.843401 0.003,-1.798422 1.4e-4,-5.757382 1.7e-4,-8.636073 3e-5,-3.520521 0,-10.561563 0,-10.561563 l -0.50984,-0.999347 c -0.2804,-0.54964 -0.69712,-1.154787 -0.92604,-1.344771 -1.17072,-1.661398 -0.0132,-2.263871 1.40291,-3.055777 l 2.10149,-0.711562 c 7.39347,-0.625396 14.55996,-1.340058 20.87058,-1.687015 0,0 2.43585,-0.202178 2.8321,-0.204506 -0.0797,0.897922 -0.67167,2.672242 -1.36911,3.296836 -0.31868,0.262495 -1.56868,0.549448 -3.15622,0.745573 -1.42602,0.176171 -2.84927,0.484561 -3.1628,0.685314 l -0.57004,0.365003 -0.1042,6.029729 -0.1042,6.02973 c 0,0 -0.48221,1.049581 -0.72975,1.578748 -0.24754,0.529166 -0.43781,0.96343 -0.7555,1.596252 -0.22771,-0.499637 -0.85515,-2.082763 -2.19241,-3.580942 l 0.005,-2.063491 c 0.004,-1.115666 0.1702,-3.310414 0.37036,-4.87722 0.20017,-1.566805 0.282,-2.930671 0.18185,-3.030816 -0.10014,-0.100142 -0.94495,-0.229778 -1.87722,-0.290017 l -1.8236,-0.117833 c -0.0135,-0.499937 -0.0207,-0.720113 -0.0328,-1.120931 h -2.64583 -2.64583 l -0.13229,16.933333 c 0,0 -0.0881,9.137608 -0.10689,13.681298 -0.007,1.709314 -0.3587,3.199165 -1.00453,4.64603 -1.00804,2.258307 -2.78874,4.709643 -4.35132,6.009223 -1.85271,1.540875 -5.026056,3.782589 -6.208627,4.385892 L 96.417867,87.6398 Z m -9.525,-53.258382 c -0.940117,-0.469643 -2.431579,-2.749434 -2.048997,-3.132018 0.103278,-0.103278 1.01644,-0.05092 2.029249,0.116337 2.907588,0.480176 5.758907,0.386347 7.648233,-0.25169 1.761902,-0.595003 2.425681,-0.439685 2.425681,0.567581 0,0.779211 -1.991201,2.264537 -3.665632,2.734358 -2.068978,0.580525 -5.191069,0.563631 -6.388534,-0.03457 z M 72.605368,20.040111 c 0,-1.482265 2.616584,-4.661771 4.92184,-5.980705 2.070602,-1.184679 5.291047,-1.708915 8.147494,-1.326282 3.47286,0.465206 5.248883,1.182096 7.042559,2.842724 1.758347,1.627919 2.767732,3.082127 2.544014,3.665124 -0.254736,0.663834 -0.938246,0.464469 -2.484373,-0.794998 -4.926626,-4.0132 -11.472902,-4.950017 -15.735414,-2.214773 -0.69851,0.448236 -1.982393,1.5924 -2.85307,2.54259 -1.02121,1.11447 -1.58305,1.5639 -1.58305,1.26632 z"
         id="path1181"
         sodipodi:nodetypes="cccssscsssccssscssccccscccccccssczcccsssccssssscccsssccsscccscssccccscsscsssscccscsacccszaccccccccsssccsccccsscccccsassccsssssssssssssssss" />
    </g>
  </g>
</svg>
